<svg width="44" height="14" viewBox="0 0 44 14" fill="none" xmlns="http://www.w3.org/2000/svg">
<path d="M0.458984 13V0.317383H2.66504L9.22168 9.39648L7.3584 8.42969H8.66797V0.317383H11.1992V13H9.00195L2.42773 3.88574L4.2998 4.85254H2.99023V13H0.458984ZM16.4639 13.1494C15.8486 13.1494 15.3037 13.0322 14.8291 12.7979C14.3545 12.5576 13.9824 12.2207 13.7129 11.7871C13.4434 11.3477 13.3086 10.835 13.3086 10.249V10.2314C13.3086 9.65723 13.4521 9.16211 13.7393 8.74609C14.0264 8.33008 14.4482 8.00488 15.0049 7.77051C15.5674 7.53027 16.25 7.38672 17.0527 7.33984L20.6475 7.12012V8.68457L17.4307 8.88672C16.8799 8.92188 16.4697 9.04199 16.2002 9.24707C15.9307 9.45215 15.7959 9.73047 15.7959 10.082V10.0996C15.7959 10.4688 15.9365 10.7588 16.2178 10.9697C16.499 11.1807 16.8652 11.2861 17.3164 11.2861C17.709 11.2861 18.0605 11.207 18.3711 11.0488C18.6875 10.8906 18.9365 10.6768 19.1182 10.4072C19.2998 10.1318 19.3906 9.82422 19.3906 9.48438V6.4082C19.3906 5.98633 19.25 5.66113 18.9688 5.43262C18.6934 5.2041 18.292 5.08984 17.7646 5.08984C17.2959 5.08984 16.915 5.16895 16.6221 5.32715C16.335 5.48535 16.1416 5.71094 16.042 6.00391L16.0244 6.03906H13.6689L13.6777 5.95117C13.7422 5.38281 13.9531 4.8877 14.3105 4.46582C14.6738 4.04395 15.1602 3.71582 15.7695 3.48145C16.3789 3.24707 17.0879 3.12988 17.8965 3.12988C18.752 3.12988 19.4785 3.26172 20.0762 3.52539C20.6738 3.7832 21.1279 4.15527 21.4385 4.6416C21.749 5.12793 21.9043 5.71387 21.9043 6.39941V13H19.3906V11.7168H19.2324C19.0684 12.0098 18.8486 12.2646 18.5732 12.4814C18.3037 12.6982 17.9902 12.8652 17.6328 12.9824C17.2754 13.0938 16.8857 13.1494 16.4639 13.1494ZM28.4873 13.2021C27.4854 13.2021 26.6299 13.0059 25.9209 12.6133C25.2178 12.2148 24.6787 11.6406 24.3037 10.8906C23.9346 10.1348 23.75 9.22363 23.75 8.15723V8.13965C23.75 7.0791 23.9346 6.17676 24.3037 5.43262C24.6787 4.68848 25.2178 4.12012 25.9209 3.72754C26.624 3.3291 27.4766 3.12988 28.4785 3.12988C29.334 3.12988 30.0693 3.2793 30.6846 3.57812C31.2998 3.87109 31.7861 4.28418 32.1436 4.81738C32.501 5.34473 32.7178 5.96582 32.7939 6.68066V6.70703H30.4209L30.4121 6.68945C30.3242 6.2207 30.1191 5.8457 29.7969 5.56445C29.4805 5.27734 29.0469 5.13379 28.4961 5.13379C28.0332 5.13379 27.6436 5.25098 27.3271 5.48535C27.0107 5.71973 26.7676 6.05957 26.5977 6.50488C26.4336 6.9502 26.3516 7.49512 26.3516 8.13965V8.15723C26.3516 8.80762 26.4336 9.36133 26.5977 9.81836C26.7676 10.2695 27.0107 10.6123 27.3271 10.8467C27.6494 11.0811 28.0391 11.1982 28.4961 11.1982C29.0234 11.1982 29.4453 11.0752 29.7617 10.8291C30.0781 10.5771 30.292 10.208 30.4033 9.72168L30.4209 9.68652L32.7852 9.67773V9.73926C32.6914 10.4365 32.4658 11.0459 32.1084 11.5674C31.751 12.0889 31.2676 12.4932 30.6582 12.7803C30.0547 13.0615 29.3311 13.2021 28.4873 13.2021ZM38.9199 13.2021C37.9355 13.2021 37.0859 13.0029 36.3711 12.6045C35.6621 12.2002 35.1143 11.623 34.7275 10.873C34.3467 10.1172 34.1562 9.21777 34.1562 8.1748V8.15723C34.1562 7.12012 34.3496 6.22656 34.7363 5.47656C35.123 4.7207 35.6709 4.14062 36.3799 3.73633C37.0947 3.33203 37.9414 3.12988 38.9199 3.12988C39.9043 3.12988 40.751 3.33203 41.46 3.73633C42.1748 4.14062 42.7227 4.71777 43.1035 5.46777C43.4902 6.21777 43.6836 7.11426 43.6836 8.15723V8.1748C43.6836 9.22363 43.4932 10.123 43.1123 10.873C42.7314 11.623 42.1865 12.2002 41.4775 12.6045C40.7686 13.0029 39.916 13.2021 38.9199 13.2021ZM38.9199 11.1982C39.377 11.1982 39.7637 11.0781 40.0801 10.8379C40.4023 10.5977 40.6484 10.252 40.8184 9.80078C40.9883 9.34961 41.0732 8.80762 41.0732 8.1748V8.15723C41.0732 7.52441 40.9854 6.98535 40.8096 6.54004C40.6396 6.08887 40.3965 5.74316 40.0801 5.50293C39.7637 5.25684 39.377 5.13379 38.9199 5.13379C38.4688 5.13379 38.082 5.25684 37.7598 5.50293C37.4434 5.74316 37.2002 6.08887 37.0303 6.54004C36.8604 6.98535 36.7754 7.52441 36.7754 8.15723V8.1748C36.7754 8.81348 36.8574 9.3584 37.0215 9.80957C37.1914 10.2607 37.4375 10.6064 37.7598 10.8467C38.082 11.0811 38.4688 11.1982 38.9199 11.1982Z" fill="black"/>
</svg>
